# xmcd
#
# Track frame offsets: 
#        150
#        18505
#        34803
#        51171
#        65756
#        83685
#        101781
#        115809
#        129056
#        143993
#
# Disc length: 2130 seconds
#
# Revision: 0
# Processed by: cddbd v1.5.2PL0 Copyright (c) Steve Scherf et al.
# Submitted via: ExactAudioCopyFreeDBPlugin 1.0
#
DISCID=8508500a
DTITLE=Paul Carrack - Rain Or Shine
DYEAR=2013
DGENRE=Soul
TTITLE0=Stepping Stone
TTITLE1=That's All That Matters to Me
TTITLE2=One in a Million
TTITLE3=You Don't Know Me
TTITLE4=(If Loving You Is Wrong) I Don't Want to Be Right
TTITLE5=Time Waits for No One
TTITLE6=Hard Times (No One Knows Better Than I)
TTITLE7=I'm Losing You
TTITLE8=Life's Too Short
TTITLE9=Come Rain or Shine
EXTD=
EXTT0=
EXTT1=
EXTT2=
EXTT3=
EXTT4=
EXTT5=
EXTT6=
EXTT7=
EXTT8=
EXTT9=
PLAYORDER=
